<?xml version="1.0" encoding="UTF-8"?>
<?xml-stylesheet href="../css/ymb.css" type="text/css"?>
<?xml-stylesheet href="../css/svg.css" type="text/css"?>
<svg xmlns="http://www.w3.org/2000/svg" width="500" height="500" viewBox="0 0 1000 1000">
    <g id="butt">
        <path id="left-outer" d="
            M 15 5
            Q 0 50 2 200
            Q 6 200 2 225
            Q 0 300 2 300
            Q 6 325 2 325
            Q 6 425 2 425
            Q 5 625 2 625
            C 0 700 0 800 20 1000
        " />
        <!-- <path stroke="red" d="M 20 600 L 980 600" /> -->
        <path id="right-outer" d="
            M 985 5
            Q 1000 25 998 100
            Q 994 100 998 125
            Q 1000 300 998 300
            Q 994 325 998 325
            Q 993 375 997 375
            Q 994 425 998 425
            Q 995 625 998 625
            C 1000 700 1000 800 980 1000
        " />
        <path id="left-cheek" d="
            M 20 500
            C 20 650 450 750 500 575
            C 500 575 502 550 500 480
            Q 495 460 498 450
            M 160 550
            Q 160 558 164 560
            Q 162 575 180 590
            M 213 535
            Q 213 553 217 560
            Q 215 575 233 592
            M 374 560
            Q 384 580 390 580
            Q 388 585 445 601
        " />
        <path id="right-cheek" d="
            M 980 500
            C 980 604 965 604 965 605
            C 950 670 900 650 880 670
            C 880 680 550 750 500 575
            C 500 575 498 450 500 480
            Q 505 460 503 450
            M 860 600
            Q 862 624 800 623
            L 802 623
            Q 795 625 780 625
        " />
        <path id="left-leg" d="
            M 500 575
            L 500 1000
            Q 500 1000 500 1000
            Q 500 1000 500 1000
        " />
        <path id="right-leg" d="
            M 500 575
            L 500 1000
            Q 500 1000 500 1000
            Q 500 1000 500 1000
        " />
    </g>
</svg>